<?xml version="1.0" encoding="UTF-8"?>
<!-- Generator: Adobe Illustrator 19.0.0, SVG Export Plug-In . SVG Version: 6.00 Build 0)  -->
<svg version="1.1" id="Layer_1" xmlns="http://www.w3.org/2000/svg" xmlns:xlink="http://www.w3.org/1999/xlink" x="0px" y="0px" viewBox="0 0 489.1 354.7" style="enable-background:new 0 0 489.1 354.7;" xml:space="preserve">
<style type="text/css">
	.st0{fill:#01AEF0;}
</style>
<g id="XMLID_64_">
	<g id="XMLID_1_">
		<path id="XMLID_2_" class="st0" d="M111,320c0,4-1,7.8-3,11.4c-6,10.5-17.4,15.7-34.2,15.7h-67v-93.4h67c16,0,27.1,5,33.5,14.9    c2.5,4,3.7,8.3,3.7,12.9c0,7.8-3.3,14.3-9.8,19.6C107.7,306.1,111,312.4,111,320z M95.2,281.3c0-3.9-2.3-6.9-6.8-9    c-3.6-1.5-7.6-2.3-12.2-2.3H23v60.9h53.2c4.5,0,8.4-0.7,11.9-2.1c4.7-2,7.1-4.9,7.1-8.6c0-3.8-2.4-6.7-7.1-8.8    c-3.6-1.5-7.5-2.2-11.9-2.2H32.6v-16.3h43.6c4.6,0,8.6-0.8,12.2-2.5C93,288.3,95.2,285.3,95.2,281.3z"/>
		<path id="XMLID_5_" class="st0" d="M204.4,347.2h-80.6v-93.4h16.3v77.1h64.3V347.2z"/>
		<path id="XMLID_7_" class="st0" d="M235.4,347.2h-16.3v-93.4h16.3V347.2z"/>
		<path id="XMLID_9_" class="st0" d="M274,347.2h-16.3v-93.4H274V347.2z M352.1,347.2h-23.9l-46.4-38.7c-3.2-2.7-4.8-5.2-4.8-7.5    c0-2.2,1.6-4.7,4.8-7.4l46.4-39.8h23.9l-55.7,47.6L352.1,347.2z"/>
		<path id="XMLID_12_" class="st0" d="M482.4,347.2l-20.9-0.1l-15.7-26.1h-44.3l9.8-16.1H436l-16.3-26.9l-42.1,69.2h-20.9l50.7-84.4    c1.3-2.2,3.1-4.2,5.3-6c2.7-2.1,5.2-3.1,7.4-3.1c2.4,0,4.8,1,7.4,3c2.2,1.7,4,3.8,5.3,6.2L482.4,347.2z"/>
	</g>
	<g id="XMLID_63_">
		<path id="XMLID_78_" class="st0" d="M397.7,236.4c-12.7-20-76.1-37.6-89.9-40.5c-13.2-2.8-26.3-4.6-39.7-5    c-14.4-0.5-28.8-1.3-43.1-2.5c-44.7-3.7-80.2-24.2-107.4-59.7C103,109.7,91.7,88.9,81,67.5c17.2,19.2,35.5,37.4,56,53.2    c13.9,10.7,28.5,20.2,44.3,27.7c26.6,12.5,53.9,16.6,83.4,12.1c56.2-8.6,97.7,14.3,110.4,30.8L397.7,236.4z"/>
		<path id="XMLID_76_" class="st0" d="M381.7,170.5c-8.2-5-16.3-10.1-24.6-14.9c-22.9-13.2-48.3-16.3-74-13.6    c-9.1,0.9-18,2.3-27,3.7c-33.3,5.3-60.4-4.3-88.2-21.6c-31.2-19.3-57.9-44.3-74.3-77.4c-1-2-1.8-4.1-1.6-7.1    c2.4,2.3,4.8,4.6,7.2,6.9c30.2,28.3,64,50.3,104.8,60.1c23.8,5.7,47.6,5.4,71.3-1c10.8-2.9,21.8-4.5,33-4.6    c23.4-0.1,40.6,10.2,52.3,30.3C368,144.2,373,158.3,381.7,170.5z"/>
		<path id="XMLID_75_" class="st0" d="M365.9,97.7c-12.9,0.2-23.3-3.1-32.1-8.5c-10.9-6.6-21.8-8.7-33.4-7.2    c-14.8,1.9-29.9,5.7-44.4,8.8c-23.1,5-44.7,0.7-65.8-8.5C162,70.2,136.4,54.4,117,29.8c-4.8-6.1-9-12.6-11.9-22.2    c11.4,10.9,21.7,20.2,33.2,27.8c37.8,25.2,78.3,36.4,123.2,22.9c10.9-3.3,21.2-8.2,31.8-12.5c21-8.6,42.8-1.3,53.6,18.9    C352.7,75.4,357.3,86.6,365.9,97.7z"/>
	</g>
</g>
<script xmlns=""/><link xmlns=""/></svg>